<svg width="147" height="60" viewBox="0 0 147 60" fill="none" xmlns="http://www.w3.org/2000/svg">
<path fill-rule="evenodd" clip-rule="evenodd" d="M62.0798 12.7498L49.6795 2.57138C45.5024 -0.857127 39.6144 -0.857127 35.4374 2.57138L23.0369 12.7498C20.8028 14.5837 19.5352 17.364 19.5352 20.2651L19.5352 32.2857C19.5352 37.4401 23.5278 41.8605 28.7445 41.8605H32.2747C34.8177 41.8605 36.8793 39.8139 36.8793 37.2892V31.7211C36.8793 28.8241 40.1458 26.7177 42.5585 26.7177C44.9711 26.7177 48.2374 28.8241 48.2374 31.7211V37.2892C48.2374 39.8139 50.2989 41.8605 52.8421 41.8605H56.3724C61.5892 41.8605 65.5817 37.4401 65.5817 32.2857L65.5816 20.2651C65.5816 17.364 64.3139 14.5837 62.0798 12.7498Z" fill="#8CCC33"/>
<path d="M73.8938 57.7132C73.8652 57.5926 73.1672 54.7268 71.0619 51.8776C68.1933 47.9953 64.1073 45.9433 59.2457 45.9433L27.3272 45.9433C19.5194 45.9433 15.6074 38.1896 15.6074 34.2905V34.2948C15.6074 32.2889 14.8354 30.697 13.5712 29.3196L14.6011 17.2302C14.731 16.0705 13.8892 15.0257 12.7209 14.8969C11.5529 14.768 10.5004 15.6039 10.3707 16.7637L9.54988 26.9834C8.48574 26.7409 7.40911 26.721 6.33518 26.925L5.52048 16.7635C5.39051 15.6038 4.33772 14.7677 3.17014 14.8969C2.00186 15.0259 1.16005 16.0706 1.29002 17.2304L2.29088 29.0547C0.876284 30.4576 0 32.1575 0 34.2948V36.7868C0 50.1899 10.969 60 24.8713 60L71.8638 60C73.2339 60 74.2097 59.0411 73.8938 57.7132Z" fill="#4D40CC"/>
<path d="M82.9106 29.943H79.8076L86.7323 13.562H89.9836L97.0566 29.943H93.8053L91.9458 25.4755H86.527L87.5651 22.8407H90.8506L88.2838 16.6892L82.9106 29.943Z" fill="#4D40CC"/>
<path d="M97.5795 16.0939H99.8155L100.272 18.0413H103.284V20.4469H100.603V25.9798C100.603 27.1024 101.086 27.6637 102.051 27.6637H103.284V30.0694H100.591C98.5834 30.0694 97.5795 28.9887 97.5795 26.8275V16.0939Z" fill="#4D40CC"/>
<path d="M104.869 18.0413H108.075L111.098 26.7015L114.052 18.0413H117.201L112.227 30.4245C111.345 32.6086 110.626 33.4208 108.958 34.2587C108.283 33.654 107.687 33.3606 106.534 33.0134C107.873 32.4253 108.847 31.4669 109.455 30.1381L104.869 18.0413Z" fill="#4D40CC"/>
<path d="M121.473 26.9306C122.225 27.343 123.035 27.5492 123.902 27.5492C125.705 27.5492 126.606 26.2777 126.606 23.7346C126.606 21.5733 125.61 20.4927 123.617 20.4927C122.758 20.4927 122.043 20.5462 121.473 20.6531V26.9306ZM118.449 18.5339C120.039 18.2055 121.72 18.0413 123.492 18.0413C127.561 18.0413 129.595 19.9467 129.595 23.7575C129.595 27.9654 127.701 30.0694 123.914 30.0694C123.108 30.0694 122.294 29.8784 121.473 29.4966V34.4224H118.449V18.5339Z" fill="#4D40CC"/>
<path d="M133.759 13.6883V16.0939H130.736V13.6883H133.759ZM133.759 18.0413V30.0694H130.736V18.0413H133.759Z" fill="#4D40CC"/>
<path d="M134.991 30.0694V13.6883H138.014V18.9806C139.254 18.3544 140.558 18.0413 141.927 18.0413C144.985 18.0413 146.513 19.1983 146.513 21.5123C146.513 23.1924 145.449 24.5059 143.319 25.4529L146.506 30.0694H142.81L140.216 25.7736V24.3646C142.399 23.8988 143.49 23.1351 143.49 22.0736C143.49 20.9891 142.768 20.4469 141.323 20.4469C140.311 20.4469 139.209 20.7677 138.014 21.4092V30.0694H134.991Z" fill="#4D40CC"/>
<path d="M79.8076 46.23V29.9165H82.9233V36.6472H93.8036V29.9165H97.066V46.23H93.8053V39.2711H82.9233V46.23H79.8076Z" fill="#8CCC33"/>
<path d="M101.053 40.1951C101.053 42.6973 102.023 43.9484 103.962 43.9484C105.901 43.9484 106.871 42.6973 106.871 40.1951C106.871 37.7538 105.901 36.5332 103.962 36.5332C102.023 36.5332 101.053 37.7538 101.053 40.1951ZM98.0298 40.2408C98.0298 36.2251 100.007 34.2173 103.962 34.2173C107.917 34.2173 109.894 36.2251 109.894 40.2408C109.894 44.2488 107.917 46.2528 103.962 46.2528C100.022 46.2528 98.045 44.2488 98.0298 40.2408Z" fill="#8CCC33"/>
<path d="M121.473 34.2516V46.23H119.112L118.747 44.7013C117.37 45.7204 115.91 46.23 114.366 46.23C111.917 46.23 110.693 44.7812 110.693 41.8835V34.2516H113.716V41.8037C113.716 43.127 114.294 43.7887 115.45 43.7887C116.431 43.7887 117.431 43.397 118.45 42.6137V34.2516H121.473Z" fill="#8CCC33"/>
<path d="M124.252 45.6596V43.1498C125.583 43.6822 127.119 43.9484 128.861 43.9484C130.161 43.9484 130.812 43.5301 130.812 42.6935C130.812 41.8949 130.374 41.4957 129.5 41.4957H127.332C124.898 41.4957 123.682 40.2978 123.682 37.9021C123.682 35.3924 125.457 34.1375 129.009 34.1375C130.515 34.1375 131.933 34.3656 133.264 34.822V37.3317C131.933 36.7994 130.488 36.5332 128.929 36.5332C127.294 36.5332 126.477 36.9515 126.477 37.7881C126.477 38.5866 126.952 38.9859 127.903 38.9859H129.842C132.504 38.9859 133.835 40.1837 133.835 42.5794C133.835 45.0892 132.139 46.3441 128.747 46.3441C127.081 46.3441 125.583 46.1159 124.252 45.6596Z" fill="#8CCC33"/>
<path d="M141.01 34.2516C144.646 34.2516 146.463 36.1073 146.463 39.8187C146.463 40.313 146.429 40.8074 146.361 41.3017H138.409C138.409 42.9901 139.649 43.8343 142.128 43.8343C143.338 43.8343 144.547 43.7202 145.756 43.4921V45.8878C144.699 46.1159 143.414 46.23 141.9 46.23C137.558 46.23 135.386 44.188 135.386 40.1039C135.386 36.2023 137.261 34.2516 141.01 34.2516ZM138.409 39.2026H143.52V39.1114C143.52 37.4534 142.684 36.6244 141.01 36.6244C139.413 36.6244 138.546 37.4838 138.409 39.2026Z" fill="#8CCC33"/>
</svg>
