<svg width="74" height="60" viewBox="0 0 74 60" fill="none" xmlns="http://www.w3.org/2000/svg">
<path fill-rule="evenodd" clip-rule="evenodd" d="M62.0816 12.7498L49.6813 2.57137C45.5042 -0.857124 39.6163 -0.857124 35.4393 2.57137L23.0389 12.7498C20.8047 14.5836 19.5371 17.364 19.5371 20.265L19.5372 32.2856C19.5372 37.4399 23.5297 41.8603 28.7464 41.8603H32.2766C34.8197 41.8603 36.8812 39.8138 36.8812 37.2891V31.721C36.8812 28.824 40.1477 26.7176 42.5603 26.7176C44.9729 26.7176 48.2393 28.824 48.2393 31.721V37.2891C48.2393 39.8138 50.3008 41.8603 52.8439 41.8603H56.3742C61.591 41.8603 65.5835 37.4399 65.5835 32.2856L65.5834 20.265C65.5834 17.364 64.3158 14.5836 62.0816 12.7498Z" fill="#003333"/>
<path d="M73.8936 57.7133C73.8649 57.5928 73.167 54.727 71.0617 51.8778C68.1931 47.9955 64.1071 45.9435 59.2455 45.9435L27.3271 45.9435C19.5193 45.9435 15.6073 38.1898 15.6073 34.2908V34.2951C15.6073 32.2891 14.8353 30.6972 13.5711 29.3198L14.6011 17.2305C14.7309 16.0708 13.8891 15.026 12.7208 14.8972C11.5528 14.7683 10.5003 15.6042 10.3707 16.764L9.54985 26.9837C8.48571 26.7411 7.40909 26.7213 6.33516 26.9252L5.52046 16.7638C5.39049 15.6041 4.3377 14.768 3.17013 14.8972C2.00185 15.0262 1.16005 16.0709 1.29002 17.2306L2.29087 29.055C0.876281 30.4579 0 32.1577 0 34.2951V36.787C0 50.1901 10.9689 60.0001 24.8712 60.0001L71.8636 60.0002C73.2336 60.0002 74.2094 59.0413 73.8936 57.7133Z" fill="#003333"/>
</svg>
